<svg width="84" height="51" viewBox="0 0 84 51" fill="none" xmlns="http://www.w3.org/2000/svg">
<path d="M25.1938 0.501953C11.5792 0.501953 0.500488 11.4965 0.500488 25.0081C0.500488 38.5197 11.5775 49.5177 25.1938 49.5177H58.449C72.0636 49.5177 83.1389 38.5231 83.1389 25.0081C83.1389 11.4931 72.0654 0.501953 58.4508 0.501953H25.1955H25.1938Z" fill="white"/>
<path d="M58.4509 50.0112H25.1956C11.3012 50.0112 0 38.7941 0 25.0047C0 11.2154 11.3012 0 25.1939 0H58.4491C72.3401 0 83.6413 11.2171 83.6413 25.0047C83.6413 38.7923 72.3401 50.0112 58.4491 50.0112M25.1939 0.498576C11.5793 0.498576 0.500575 11.4931 0.500575 25.0047C0.500575 38.5163 11.5775 49.5143 25.1939 49.5143H58.4491C72.0637 49.5143 83.139 38.5198 83.139 25.0047C83.139 11.4897 72.0655 0.498576 58.4509 0.498576H25.1956H25.1939Z" fill="white"/>
<path d="M64.2632 23.5075L75.321 36.5619C77.6119 33.2771 78.9572 29.2937 78.9572 25.0049C78.9572 20.4781 77.4589 16.291 74.93 12.9062L64.2632 23.5092V23.5075Z" fill="#E21E27"/>
<path d="M32.9264 11.8067C41.1841 11.8067 47.4066 13.8924 48.0479 20.7983L56.7385 11.8049H74.0448C70.2801 7.4316 64.6851 4.65234 58.4488 4.65234H25.1935C18.9554 4.65234 13.3587 7.42988 9.59399 11.8049H32.9246L32.9264 11.8067Z" fill="#E21E27"/>
<path d="M19.3202 20.5098L16.3706 28.5577H28.2697C31.7876 28.5577 32.8514 27.112 33.6387 24.3293C34.4174 21.5777 32.4603 20.5098 30.0565 20.5098H19.3202Z" fill="#E21E27"/>
<path d="M56.8118 37.6622L47.6189 26.1328C45.919 33.9944 40.3553 37.6622 29.9249 37.6622H9.14062C12.9002 42.3512 18.7002 45.3651 25.1938 45.3651H58.449C64.9426 45.3651 70.7392 42.3546 74.4987 37.6639H56.81L56.8118 37.6622Z" fill="#E21E27"/>
</svg>
